<svg xmlns="http://www.w3.org/2000/svg" xmlns:xlink="http://www.w3.org/1999/xlink" xmlns:serif="http://www.serif.com/" width="289.2406104248749" height="345.73291714848324" viewBox="0 0 210 251" version="1.1" xml:space="preserve" style="fill-rule:evenodd;clip-rule:evenodd;"><path d="M104.749,245.922c13.068,-21.164 33.432,-21.707 62.371,-50.869c40.959,-41.281 39.959,-100.818 34.674,-157.002c-27.67,5.19 -78.763,-21.436 -97.045,-33.211c-18.283,11.775 -69.374,38.749 -97.044,33.582c-5.291,56.185 -7.575,115.597 33.382,156.879c28.939,29.161 50.597,29.457 63.662,50.621" style="fill:#f1c350;fill-rule:nonzero;"/><path d="M104.749,245.922c-13.065,-21.164 -34.723,-21.46 -63.662,-50.621c-40.957,-41.282 -38.673,-100.694 -33.382,-156.879c27.67,5.167 78.761,-21.807 97.044,-33.582c18.282,11.775 69.375,38.401 97.045,33.211c5.285,56.184 6.285,115.721 -34.674,157.002c-28.939,29.162 -49.23,29.587 -62.296,50.749l-0.075,0.12Z" style="fill:none;stroke:#000;stroke-width:2.35px;"/><path d="M62.95,171.217c-24.479,-4.372 -47.77,-19.795 -51.173,-72.037l6.385,8.892c1.39,-3.55 2.757,-6.655 4.124,-10.207c4.315,53.661 31.195,63.429 54.494,64.267l4.207,0.058c9.399,-0.074 18.196,-1.287 23.935,-1.163c5.629,-0.124 14.08,1.095 23.466,1.163l4.209,-0.052c23.267,-0.788 50.385,-10.455 54.713,-64.273c1.365,3.552 2.732,6.657 4.101,10.207l6.38,-8.892c-3.391,52.582 -26.957,67.847 -51.512,72.121l-19.537,1.723c-7.429,0.354 -11.821,-1.489 -21.82,-1.489c-10.562,0.024 -14.899,1.697 -22.756,1.437l-19.216,-1.755Z" style="fill:#fff;fill-rule:nonzero;stroke:#000;stroke-width:0.79px;"/><path d="M21.564,120.168c0.125,0.025 0.248,0 0.374,-0.026c0.869,-0.173 1.042,-0.818 0.845,-1.811l-0.225,-1.119l-0.994,0.2l-0,-0.773l1.416,-0.271l0.324,1.639c0.074,0.297 0.098,0.572 0.098,0.795l0,0.372c-0.049,1.216 -0.771,1.589 -1.341,1.714c-0.173,0.025 -0.347,0.025 -0.497,0.025l-0,-0.745Zm-1.315,-2.485l0.199,0.97c0.22,1.119 0.671,1.468 1.116,1.515l-0,0.745c-0.546,-0.074 -1.044,-0.447 -1.341,-1.019l-2.632,1.915l-0.174,-0.821l2.558,-1.814l-0.272,-1.389l-2.806,0.569l-0.151,-0.744l4.818,-0.971l-0,0.773l-1.315,0.271Z"/><path d="M24.446,125.41l-0.769,-2.98l-2.087,0.521l0.547,2.136l-0.573,0.15l-0.546,-2.138l-2.384,0.623l0.82,3.151l-0.572,0.15l-0.994,-3.896l6.162,-1.566l0.941,3.725l-0.545,0.124Z"/><path d="M19.527,129.16l-0.222,-0.721l6.036,-1.96l0.348,1.119l-3.879,4.245l4.773,-1.54l0.224,0.693l-6.04,1.989l-0.221,-0.718l4.471,-4.895l-5.49,1.788Z"/><path d="M25.191,137.406c0.223,-0.075 0.473,-0.15 0.72,-0.246c1.763,-0.746 2.211,-1.841 1.838,-2.759c-0.348,-0.772 -1.191,-1.215 -2.558,-0.845l0,-0.745c1.466,-0.297 2.583,0.271 3.057,1.392c0.569,1.341 -0.126,2.83 -2.063,3.651c-0.349,0.123 -0.673,0.248 -0.994,0.297l0,-0.745Zm-0.697,-3.602c-1.788,0.747 -2.234,1.838 -1.837,2.758c0.324,0.769 1.169,1.22 2.534,0.844l0,0.745c-1.442,0.274 -2.584,-0.272 -3.031,-1.392c-0.596,-1.364 0.126,-2.83 2.037,-3.65c0.347,-0.148 0.671,-0.249 0.994,-0.298l0,0.745c-0.223,0.05 -0.448,0.15 -0.697,0.248"/><path d="M24.893,142.226l-0.321,-0.596l4.667,-4.744l0.374,0.67l-3.824,3.827l5.364,-0.92l0.347,0.644l-6.607,1.119Z"/><path d="M32.346,143.22l-1.641,0.497l0,-0.673l1.714,-0.497l0.569,0.896l-2.283,2.808l0,-1.096l1.641,-1.935Zm-1.641,0.497l-1.662,0.521l1.043,1.64l0.619,-0.723l0,1.096l-1.936,2.361l-0.397,-0.651l1.339,-1.634l-1.241,-1.939l-2.037,0.597l-0.422,-0.649l4.694,-1.292l0,0.673Z"/><path d="M33.091,148.234c0.57,0.698 1.293,1.618 2.136,0.921c0.867,-0.718 0.15,-1.54 -0.425,-2.26l-0.471,-0.548l-1.24,1.019l-0,-0.967l1.217,-0.995l1.239,1.519c0.498,0.643 0.698,1.167 0.723,1.611l-0,0.075c-0.025,0.497 -0.274,0.873 -0.548,1.118c-0.546,0.42 -1.217,0.42 -1.813,-0.048c0.347,0.791 0.248,1.516 -0.373,2.034c-0.149,0.099 -0.271,0.202 -0.445,0.275l-0,-0.896c0.471,-0.422 0.648,-0.966 -0,-1.937l-0,-0.921Zm-0,0l-0,0.921c-0.075,-0.1 -0.176,-0.223 -0.274,-0.349l-0.595,-0.743l-1.939,1.567l0.572,0.692c1.069,1.319 1.638,1.267 2.161,0.822c0.023,0 0.05,-0.027 0.075,-0.052l-0,0.896c-0.598,0.248 -1.439,0.222 -2.409,-0.995l-1.293,-1.589l3.702,-3.005l-0,0.967l-0.424,0.347l0.424,0.521Z"/><path d="M33.686,154.397l-0.522,-0.522l4.594,-4.396l0.521,0.517l-4.593,4.401Z"/><path d="M41.735,153.973l-1.416,-1.267l-3.85,4.321l-0.574,-0.496l3.851,-4.322l-1.416,-1.241l0.374,-0.448l3.403,3.031l-0.372,0.422Z"/><path d="M43.621,159.932c-0.993,1.393 -2.235,1.022 -3.077,0.451c-0.821,-0.573 -1.589,-1.616 -0.624,-3.006l2.483,-3.603l0.624,0.424l-2.236,3.202c-0.548,0.823 -1.044,1.667 0.123,2.462c1.168,0.819 1.789,0.07 2.361,-0.748l2.211,-3.202l0.619,0.424l-2.484,3.596Z"/><path d="M47.618,160.408c0.821,0.25 1.194,-0.074 1.416,-0.496c0.397,-0.772 0.024,-1.318 -0.869,-1.79l-0.547,-0.297l-0,-0.647l0.621,0.324c1.27,0.669 1.642,1.366 1.665,1.964l-0,0.076c-0.023,0.269 -0.098,0.543 -0.223,0.74c-0.348,0.673 -1.118,0.971 -1.938,0.797l-0.125,2.185l-0,-2.856Zm-1.564,-0.743l0.871,0.471c0.274,0.122 0.496,0.22 0.693,0.272l-0,2.856l-0.048,1.071l-0.746,-0.375l0.2,-3.13l-1.243,-0.669l-1.342,2.53l-0.647,-0.344l2.957,-5.614l0.869,0.445l-0,0.647l-0.471,-0.252l-1.093,2.092Z"/><path d="M56.536,165.572c-0.545,1.616 -1.863,1.616 -2.806,1.319c-0.944,-0.322 -2.014,-1.12 -1.467,-2.731l1.367,-4.151l0.698,0.25l-1.219,3.704c-0.298,0.939 -0.523,1.861 0.821,2.306c1.34,0.445 1.739,-0.445 2.037,-1.367l1.216,-3.699l0.72,0.223l-1.367,4.146Z"/><path d="M62.723,163.139l-1.84,-0.424l-1.316,5.641l-0.721,-0.174l1.293,-5.612l-1.84,-0.452l0.127,-0.542l4.421,1.018l-0.124,0.545Z"/><path d="M87.362,167.511l0.967,-0.052l-0.967,-2.754l0,-0.971l0.346,-0l2.336,6.237l-0.77,0.048l-0.747,-1.985l-1.165,0.047l0,-0.57Zm-0.174,-3.331l-0.026,0l-0.771,3.378l0.971,-0.047l0,0.57l-1.118,0.051l-0.523,2.062l-0.769,0.025l1.69,-6.435l0.72,-0.05l0,0.971l-0.174,-0.525Z"/><path d="M94.164,169.298l0.177,0c0.968,-0.074 1.763,-0.943 1.638,-2.879c-0.122,-1.815 -0.918,-2.606 -1.815,-2.632l0,-0.55c1.369,0.027 2.437,1.144 2.56,3.133c0.076,1.24 -0.248,3.029 -2.011,3.402c0.174,0.771 0.769,0.771 1.216,0.744l0.498,-0.026l0.049,0.574l-0.497,0.024c-0.795,0.05 -1.463,-0 -1.815,-0.744l0,-1.046Zm-1.811,-2.654c0.101,1.81 0.896,2.607 1.811,2.654l0,1.046c-0.072,-0.15 -0.121,-0.325 -0.171,-0.521c-1.765,-0.15 -2.309,-1.892 -2.386,-3.133l0,-0.646c0.077,-1.685 1.043,-2.732 2.335,-2.807l0.222,-0l0,0.55l-0.171,0c-0.993,0.049 -1.765,0.941 -1.64,2.857"/><path d="M103.631,167.239c0.049,1.711 -1.168,2.185 -2.161,2.209c-1.018,0.022 -2.26,-0.347 -2.336,-2.035l-0.15,-4.375l0.749,-0.024l0.145,3.899c0.026,0.995 0.15,1.939 1.565,1.888c1.417,-0.047 1.466,-1.018 1.417,-1.986l-0.125,-3.899l0.748,-0.026l0.148,4.349Z"/><path d="M106.114,169.267l0.072,-6.351l0.745,0.008l-0.072,6.35l-0.745,-0.007Z"/><path d="M110.139,168.801l3.003,0.175l-0.024,0.573l-3.75,-0.2l0.32,-6.358l0.748,0.049l-0.297,5.761Z"/><path d="M117.641,163.885l-0.176,0.496l0,-0.918l0.746,0.049l1.638,6.459l-0.766,-0.05l-0.522,-2.063l-1.096,-0.072l0,-0.573l0.971,0.076l-0.795,-3.404Zm-0.176,0.496l-0.966,2.783l0.966,0.049l0,0.573l-1.191,-0.076l-0.748,1.987l-0.743,-0.05l2.385,-6.21l0.297,0.026l0,0.918Z"/><path d="M125.862,164.456l-3.109,-0.123l-0.073,2.162l2.212,0.098l-0.024,0.571l-2.213,-0.098l-0.098,2.483l3.305,0.125l-0.028,0.569l-4.047,-0.174l0.249,-6.335l3.85,0.151l-0.024,0.571Z"/><path d="M153.581,165.7c0.396,1.465 -0.45,2.034 -1.193,2.231c-0.645,0.178 -1.341,0 -1.691,-0.518l0.573,-0.474c0.15,0.324 0.548,0.495 0.945,0.397c0.571,-0.149 0.842,-0.718 0.646,-1.439l-1.219,-4.471l0.722,-0.197l1.217,4.471Z"/><path d="M159.763,163.215c0.597,1.589 -0.422,2.436 -1.338,2.78c-0.943,0.348 -2.26,0.427 -2.858,-1.166l-1.565,-4.073l0.694,-0.272l1.391,3.627c0.349,0.916 0.77,1.811 2.115,1.288c1.312,-0.495 1.04,-1.436 0.693,-2.359l-1.392,-3.623l0.699,-0.277l1.561,4.075Z"/><path d="M164.508,163.065l-0.596,0.323l-4.792,-4.668l0.668,-0.352l3.852,3.803l0.024,-0l-0.945,-5.364l0.623,-0.349l1.166,6.607Z"/><path d="M167.664,154.147l-2.536,1.79l1.27,1.766l1.788,-1.291l0.349,0.472l-1.817,1.288l1.445,2.011l2.681,-1.91l0.345,0.447l-3.3,2.362l-3.703,-5.17l3.13,-2.233l0.348,0.468Z"/><path d="M173.498,156.758l-0.515,0.521l-4.398,-4.596l0.84,-0.819l5.515,1.667l-3.45,-3.631l0.52,-0.518l4.398,4.593l-0.524,0.521l-6.358,-1.911l3.972,4.173Z"/><path d="M176.058,145.326l-1.19,1.495l4.518,3.601l-0.445,0.597l-4.547,-3.603l-1.168,1.488l-0.446,-0.37l2.83,-3.549l0.448,0.341Z"/><path d="M182.341,142.475c1.465,0.893 1.169,2.158 0.649,3.027c-0.549,0.845 -1.542,1.694 -3.007,0.795l-3.7,-2.283l0.395,-0.646l3.305,2.034c0.845,0.523 1.715,0.973 2.458,-0.246c0.747,-1.193 -0.045,-1.788 -0.866,-2.285l-3.332,-2.059l0.398,-0.621l3.7,2.284Z"/><path d="M182.54,136.142c-0.746,-0.103 -1.414,-0.052 -1.81,0.77c-0.274,0.569 -0.103,1.312 0.445,1.586c1.44,0.674 2.362,-2.707 4.372,-1.737c0.993,0.472 1.215,1.592 0.718,2.658c-0.547,1.142 -1.564,1.663 -2.657,1.411l0.151,-0.716c0.769,0.173 1.613,-0.125 2.009,-0.917c0.3,-0.672 0.126,-1.442 -0.495,-1.74c-1.588,-0.748 -2.409,2.682 -4.32,1.761c-0.944,-0.446 -1.17,-1.561 -0.697,-2.582c0.474,-1.019 1.465,-1.341 2.411,-1.192l-0.127,0.698Z"/><path d="M184.973,126.031l-0.57,1.813l5.513,1.739l-0.221,0.697l-5.517,-1.743l-0.57,1.817l-0.546,-0.175l1.367,-4.324l0.544,0.176Z"/><path d="M190.117,121.063c1.664,0.396 1.788,1.715 1.541,2.683c-0.226,0.968 -0.92,2.06 -2.585,1.687l-4.245,-1.017l0.174,-0.722l3.8,0.922c0.969,0.222 1.91,0.37 2.234,-1.02c0.347,-1.364 -0.569,-1.688 -1.54,-1.913l-3.778,-0.919l0.176,-0.72l4.223,1.019Z"/><path d="M188.775,117.116l1.39,0.669l0.324,-1.912l-1.714,0.197l-0,-0.694l4.546,-0.62l-0.126,0.769l-2.11,0.274l-0.396,2.259l1.886,0.968l-0.124,0.746l-3.676,-1.913l-0,-0.743Zm-1.739,-0.847l1.739,0.847l-0,0.743l-2.235,-1.168l0.173,-1.042l2.062,-0.273l-0,0.694l-1.739,0.199Z"/><path d="M42.922,197.117c24.716,25.145 49.607,28.439 61.828,48.803c12.701,-20.761 33.352,-21.895 61.448,-49.993c-15.946,-8.314 -24.822,-22.958 -25.315,-23.863c-1.017,-0.536 -2.493,-1.073 -3.451,-1.299c-0,1.023 1.557,3.234 3.03,4.596c-2.009,2.572 1.424,4.284 -1.911,6.83c0.566,-2.583 -1.978,-5.552 -3.029,-4.796c-1.827,-2.979 -2.22,-8.379 -3.653,-7.575c-1.156,5.59 -3.809,4.775 -6.01,7.403c-0.732,0.733 -3.369,3.788 -4.719,5.143c-1.17,-3.993 -2.128,-6.891 -3.168,-9.808c-10.288,-1.499 -18.99,-1.244 -27.218,0.025c-0.625,1.583 -2.574,7.09 -3.268,10.155c-2.406,-1.158 -5.422,-5.528 -6.427,-7.21c-2.93,-1.694 -3.362,-3.219 -3.953,-5.708c-1.469,-0.778 -1.77,4.596 -3.65,7.575c-0.777,-0.693 -3.552,1.797 -3.032,4.796c-3.334,-2.523 0.125,-4.402 -1.887,-6.83c0.998,-0.998 2.888,-3.13 3.029,-4.586c-0.909,0.197 -2.504,0.765 -3.433,1.283c-0.232,0.058 -0.346,0.107 -0.454,0.214c-0.583,0.495 -1.191,2.167 -1.974,2.438c-1.732,3.272 -11.527,17.08 -22.783,22.407Z" style="fill:#9c9650;fill-rule:nonzero;stroke:#000;stroke-width:1.57px;"/><path d="M95.641,161.445c-0,-0 5.404,-11.296 8.928,-11.296c3.524,-0 8.651,11.237 8.651,11.237c-5.417,-0.504 -12.523,-0.428 -17.579,0.059Z" style="fill:#9c9650;fill-rule:nonzero;stroke:#000;stroke-width:1.57px;"/><path d="M91.257,231.59c2.459,1.739 5.861,4.698 7.626,6.631c6.929,-18.951 46.49,-23.791 50.438,-55.283c-7.748,19.296 -51.58,29.776 -58.064,48.652Z" style="fill:#fff;fill-rule:nonzero;stroke:#000;stroke-width:0.79px;"/><path d="M97.914,228.061c-0.621,-0.223 -1.219,-0.321 -1.664,0.298c-0.3,0.424 -0.275,1.069 0.176,1.391c1.139,0.845 2.384,-1.762 3.994,-0.595c0.798,0.595 0.847,1.565 0.249,2.359c-0.621,0.849 -1.566,1.068 -2.483,0.647l0.251,-0.547c0.62,0.273 1.416,0.198 1.836,-0.397c0.373,-0.474 0.323,-1.168 -0.173,-1.515c-1.269,-0.944 -2.436,1.736 -3.975,0.593c-0.742,-0.545 -0.796,-1.512 -0.248,-2.257c0.549,-0.743 1.437,-0.847 2.235,-0.524l-0.198,0.547Z"/><path d="M102.408,223.767c-0.571,-0.374 -1.242,-0.671 -1.838,-0.127c-0.598,0.548 -0.62,1.568 0.572,2.834c1.168,1.268 2.159,1.34 2.758,0.795c0.546,-0.521 0.372,-1.263 0.023,-1.839l0.499,-0.297c0.518,0.819 0.57,1.786 -0.175,2.508c-0.896,0.821 -2.31,0.622 -3.578,-0.746c-1.264,-1.388 -1.338,-2.805 -0.446,-3.625c0.772,-0.695 1.714,-0.549 2.509,0.025l-0.324,0.472Z"/><path d="M103.327,220.832l0.54,-0.404l3.385,4.529l-0.538,0.403l-3.387,-4.528Z"/><path d="M108.295,217.88l-2.112,1.44l1.094,1.614l1.515,-1.042l0.298,0.425l-1.515,1.039l1.242,1.816l2.26,-1.544l0.298,0.427l-2.754,1.884l-3.233,-4.695l2.609,-1.788l0.298,0.424Z"/><path d="M113.213,220.859l-0.523,0.325l-3.005,-4.822l0.823,-0.516l4.343,2.58l0.026,-0.026l-2.384,-3.799l0.524,-0.324l3.031,4.82l-0.525,0.321l-5.043,-2.955l0,0.027l2.733,4.369Z"/><path d="M117.684,212.04l-1.342,0.823l2.709,4.393l-0.52,0.324l-2.709,-4.399l-1.343,0.797l-0.271,-0.421l3.228,-1.962l0.248,0.445Z"/><path d="M122.057,215.418l-0.547,0.326l-2.98,-4.82l0.523,-0.323l3.004,4.817Z"/><path d="M123.076,212.02l1.167,-0.75l-1.167,-1.042l-0,-0.742l3.523,3.002l-0.517,0.349l-1.442,-1.217l-1.564,0.994l-0,-0.594Zm-0,2.754l0.546,-0.325l-0.546,-1.687l-0,2.012Zm-1.144,-5.563l0.97,2.93l0.174,-0.121l-0,0.594l-0.026,0.024l0.026,0.124l-0,2.012l-1.716,-5.665l0.748,-0.47l0.968,0.847l-0,0.742l-1.144,-1.017Z"/><path d="M127.197,205.735l-2.086,1.487l1.143,1.59l1.465,-1.066l0.299,0.419l-1.466,1.074l1.29,1.786l2.21,-1.591l0.301,0.423l-2.737,1.937l-3.3,-4.617l2.584,-1.842l0.297,0.4Z"/><path d="M71.589,219.273c3.28,1.96 7.129,4.246 10.233,6.086c2.583,-13.365 36.908,-28.089 39.316,-42.994c-2.061,4.869 -37.253,12.938 -49.549,36.908Z" style="fill:#fff;fill-rule:nonzero;stroke:#000;stroke-width:0.79px;"/><path d="M81.697,219.894l1.367,-2.086l0.42,0.298l-1.712,2.584l-4.744,-3.128l0.346,-0.522l4.323,2.854Z"/><path d="M80.158,213.289l0.345,-0.407l4.35,3.657l-0.344,0.408l-4.351,-3.658Z"/><path d="M84.778,209.214l-1.118,1.092l3.629,3.701l-0.424,0.422l-3.653,-3.672l-1.116,1.092l-0.349,-0.349l2.685,-2.658l0.346,0.372Z"/><path d="M88.604,205.862l-1.194,1.019l3.404,3.897l-0.472,0.424l-3.401,-3.925l-1.169,1.044l-0.347,-0.399l2.83,-2.459l0.349,0.399Z"/><path d="M92.231,202.883l-1.988,1.614l1.217,1.516l1.418,-1.169l0.322,0.397l-1.417,1.164l1.389,1.719l2.136,-1.719l0.325,0.401l-2.61,2.111l-3.572,-4.42l2.456,-2.011l0.324,0.397Z"/><path d="M95.484,202.983l0.62,-0.474c0.945,-0.77 0.819,-1.316 0.471,-1.739c-0.321,-0.398 -0.695,-0.5 -1.091,-0.346l-0,-0.523c0.793,-0.249 1.289,0.147 1.59,0.523c0.42,0.52 0.42,1.213 0.049,1.81l2.508,1.365l-0.52,0.422l-2.433,-1.338l-0.921,0.717l1.589,2.017l-0.474,0.396l-1.388,-1.763l-0,-1.067Zm-0.026,0.023l0.026,-0.023l-0,1.067l-2.138,-2.705l1.069,-0.846c0.397,-0.325 0.769,-0.524 1.069,-0.598l-0,0.523c-0.201,0.075 -0.399,0.199 -0.595,0.346l-0.748,0.598l1.317,1.638Z"/><path d="M100.002,200.323l0,0.028l1.245,-0.998l-1.245,-0.917l0,-0.697l3.73,2.612l-0.499,0.396l-1.54,-1.093l-1.49,1.191l0.746,1.739l-0.497,0.399l-0.45,-1.094l0,-1.566Zm-1.238,-2.783l-0.028,0l1.266,2.783l0,1.566l-1.812,-4.398l0.671,-0.547l1.141,0.795l0,0.697l-1.238,-0.896Z"/><path d="M103.779,193.545l-1.939,1.662l1.242,1.462l1.393,-1.164l0.323,0.398l-1.39,1.165l1.39,1.688l2.111,-1.736l0.323,0.371l-2.537,2.16l-3.673,-4.344l2.433,-2.037l0.324,0.375Z"/><path d="M52.782,206.002c12.047,-19.2 29.888,-17.171 34.633,-23.11c-2.834,15.676 -22.961,20.897 -24.923,30.389c-4.519,-3.204 -7.227,-5.143 -9.71,-7.279Z" style="fill:#fff;fill-rule:nonzero;stroke:#000;stroke-width:0.79px;"/><path d="M62.697,205.839c1.092,0.768 0.893,1.586 0.546,2.11c-0.323,0.447 -0.87,0.692 -1.392,0.542l0.1,-0.617c0.275,0.149 0.622,0.048 0.819,-0.223c0.275,-0.426 0.1,-0.943 -0.445,-1.292l-3.428,-2.338l0.346,-0.518l3.454,2.336Z"/><path d="M66.497,201.614c1.018,1.119 0.521,2.086 -0.074,2.655c-0.621,0.575 -1.617,0.997 -2.66,-0.121l-2.655,-2.859l0.445,-0.424l2.386,2.561c0.596,0.646 1.241,1.219 2.087,0.424c0.867,-0.795 0.321,-1.468 -0.274,-2.111l-2.361,-2.561l0.448,-0.422l2.658,2.858Z"/><path d="M69.005,196.771c-0.545,-0.397 -1.066,-0.647 -1.687,-0.199c-0.424,0.299 -0.573,0.945 -0.249,1.389c0.844,1.142 2.806,-1.018 3.998,0.599c0.595,0.791 0.348,1.735 -0.446,2.335c-0.846,0.62 -1.814,0.546 -2.557,-0.125l0.396,-0.448c0.497,0.448 1.268,0.595 1.863,0.15c0.495,-0.35 0.645,-1.019 0.272,-1.493c-0.919,-1.266 -2.831,0.944 -3.974,-0.592c-0.546,-0.747 -0.3,-1.691 0.448,-2.237c0.746,-0.548 1.614,-0.371 2.287,0.147l-0.351,0.474Z"/><path d="M104.497,30.553c2.93,0.025 5.838,0.346 8.641,0.919c0.203,-1.394 3.132,-6.782 6.932,-8.794c-5.788,0.248 -8.022,2.856 -8.022,2.856l-1.291,-5.44l-3.679,5.34l-2.607,-6.307l0.026,0l-2.585,6.334l-3.651,-5.341l-1.315,5.414c-0,0 -2.235,-2.608 -8.024,-2.856c3.802,2.012 6.732,7.4 6.93,8.794c2.808,-0.573 5.713,-0.871 8.619,-0.919" style="stroke:#000;stroke-width:0.72px;stroke-linecap:round;stroke-linejoin:round;"/><path d="M104.497,125.509c1.166,-0.919 2.036,-1.96 2.754,-3.18c-2.953,4.523 0.425,10.756 -2.233,14.358c1.142,0.595 3.728,0.796 5.068,-0.4c-2.809,5.965 0.793,6.486 -2.214,11.628c1.419,0.72 3.232,-0.348 3.232,-0.348c0,0 0.444,6.01 -0.769,7.923c5.635,0.15 7.846,-5.363 8.172,-6.085c1.338,2.358 -3.081,11.974 -3.081,11.974c-0,-0 5.285,-0.147 7.846,-8.717c1.597,2.657 6.061,11.301 6.784,15.893c0.423,0.768 -4.596,6.21 -6.184,6.855c-2.808,1.295 -1.22,4.742 -1.22,4.742c0,0 1.343,-3.572 3.204,-2.929c2.161,-2.533 4.942,-1.888 6.037,-7.399c1.466,-0.775 1.861,4.816 3.652,7.571c0.744,-0.69 3.575,1.792 3.03,4.796c3.331,-2.533 -0.125,-4.322 1.887,-6.831c-3.081,-3.081 -3.03,-4.594 -3.03,-4.594c-0,0 1.939,0.474 3.427,1.292c1.195,0.095 1.593,3.478 3.405,2.582c2.953,0.92 3.026,3.873 3.026,3.873c0,0 2.115,-4.147 -0.693,-4.269c2.755,-4.322 -7.379,-4.271 -3.848,-4.222c-1.245,-1.369 -2.909,-1.268 -4.744,-1.838c-1.841,-0.572 -3.306,-0.451 -5.318,-4.993c-2.01,-4.548 -4.499,-11.056 -4.499,-11.056l-0.115,-2.208c-0,-0 4.094,6.386 13.431,4.025c-4.123,-1.343 -5.585,-4.745 -5.585,-4.745c0,-0 2.656,0.273 3.796,-1.094c-6.629,-6.11 -5.56,-7.801 -5.56,-7.801c-0,-0 2.061,-0.298 3.475,-1.591c-4.393,-0.868 -7.478,-7.251 -7.478,-7.251c-0,0 2.162,0.35 3.677,-0.124c-5.413,-3.5 -7.573,-9.438 -7.573,-9.438c0,0 20.215,10.209 35.642,-0.671c-25.061,4.422 -30.178,-2.731 -30.178,-2.731c0,-0 0.592,-0.373 0.964,-0.746c6.187,3.032 14.31,3.552 19.475,2.384c2.982,-0.669 -11.82,1.136 -18.7,-3.211c0.376,-0.474 0.792,-1.086 0.916,-1.386c3.353,3.85 31.372,4.225 38.873,-5.289c-13.836,6.879 -34.49,3.462 -34.765,2.222c0.546,-0.471 0.408,-0.32 1.053,-0.965c4.447,2.159 16.672,1.302 20.151,0.259c2.606,-0.77 -13.591,1.607 -19.405,-1.076c0.372,-0.42 0.613,-0.816 0.885,-1.188c16.295,2.98 43.283,-6.605 43.283,-12.987c-16.07,9.513 -36.974,11.443 -41.84,9.703c0.271,-1.451 0.281,-1.65 0.324,-2.193c2.808,0.323 17.175,0.836 25.644,-3.535c4.943,-1.764 -9.901,4.395 -25.248,2.956c0.395,-0.722 0.813,-1.193 1.21,-2.113c8.841,2.385 45.399,-5.985 45.773,-19.893c-17.363,16.269 -46.016,15.793 -46.016,15.793c0,0 0.445,-0.857 0.893,-1.802c6.756,-0.671 27.313,-3.859 31.038,-7.735c-0.075,-0.668 -6.373,4.251 -30.764,6.907c0.269,-0.579 0.539,-1.89 0.539,-1.89c-0,0 45.948,-6.306 45.079,-22.327c-11.498,14.804 -44.858,17.383 -44.858,17.383c0,0 -0.171,-1.112 -0.276,-1.568c8.641,-1.24 23.027,-3.643 31.673,-8.861c1.265,-1.416 -12.686,6.261 -31.49,7.85c0.122,-1.016 0.135,-1.475 0.115,-1.985c-0.009,0.466 43.693,-4.995 46.726,-25.511c-10.484,15.697 -47.419,21.385 -47.419,21.385c0,0 -0.474,-1.253 -0.75,-1.888c0.42,-0.093 23.253,-2.435 34.333,-10.854c-16.17,7.997 -34.732,9.953 -34.855,9.753c-0.2,-0.325 -0.278,-0.48 -0.492,-0.837c-0.69,-2.161 45.954,-5.413 48.809,-30.55c-12.891,18.506 -39.618,19.052 -41.133,18.877c-20.294,-2.956 -15.722,9.216 -16.119,10.133c0.397,14.905 -8.787,14.402 -11.845,10.457c0.419,-0.048 0.468,0.026 1.61,-0.322c-3.798,-3.825 -7.078,-10.756 -7.078,-10.756c-0,0 1.416,0.173 2.037,0.299c-3.419,-4.176 -4.794,-11.301 -4.794,-11.301c-0,0 1.218,0.668 2.809,0.921c-7.08,-13.614 -7.903,-19.774 -8.001,-21.909c0.098,-1.717 1.964,-1.02 4.696,-4.844c-3.555,1.341 -9.676,0.833 -10.306,0.815c-0,0 -4.343,-0.322 -6.186,-0.768c-1.963,-0.445 -4.099,0.476 -3.801,1.866c0.273,0.372 -0.398,1.043 -0.398,1.043c0,-0 -3.604,-1.318 -7.624,-0.15c-0.945,0.671 -0,2.734 -1.071,4.445c0.126,-0.917 2.684,-2.608 3.751,-1.191c1.192,1.688 5.49,0.795 6.012,3.006c-0.126,1.812 2.136,5.713 -4.273,17.71c1.59,-0.248 2.808,-0.944 2.808,-0.944c-0,0 -1.352,7.125 -4.77,11.301c0.622,-0.126 2.04,-0.299 2.04,-0.299c-0,0 -3.282,6.931 -7.082,10.756c1.143,0.348 1.193,0.274 1.614,0.322c-3.061,3.945 -12.244,4.448 -11.845,-10.457c-0.399,-0.917 4.17,-13.089 -16.124,-10.133c-1.512,0.175 -28.239,-0.371 -41.129,-18.877c2.855,25.137 49.502,28.389 48.807,30.55c-0.213,0.357 -0.292,0.512 -0.491,0.837c-0.122,0.2 -18.684,-1.756 -34.855,-9.753c11.079,8.419 33.909,10.761 34.334,10.854c-0.277,0.635 -0.749,1.888 -0.749,1.888c-0,0 -36.939,-5.688 -47.42,-21.385c3.03,20.516 46.734,25.977 46.724,25.511c-0.019,0.51 -0.009,0.969 0.115,1.985c-18.803,-1.589 -32.755,-9.266 -31.489,-7.85c8.646,5.218 23.028,7.621 31.673,8.861c-0.105,0.456 -0.278,1.568 -0.278,1.568c0,0 -33.358,-2.579 -44.856,-17.383c-0.87,16.021 45.078,22.327 45.078,22.327c0,0 0.271,1.311 0.539,1.89c-24.392,-2.656 -30.688,-7.575 -30.764,-6.907c3.726,3.876 24.282,7.064 31.038,7.735c0.446,0.945 0.893,1.802 0.893,1.802c-0,0 -28.654,0.476 -46.015,-15.793c0.372,13.908 36.931,22.278 45.773,19.893c0.399,0.92 0.814,1.391 1.21,2.113c-15.349,1.439 -30.193,-4.72 -25.249,-2.956c8.469,4.371 22.835,3.858 25.642,3.535c0.045,0.543 0.058,0.742 0.327,2.193c-4.869,1.74 -25.77,-0.19 -41.84,-9.703c-0,6.382 26.989,15.967 43.282,12.987c0.271,0.372 0.513,0.768 0.886,1.188c-5.814,2.683 -22.012,0.306 -19.406,1.076c3.478,1.043 15.704,1.9 20.151,-0.259c0.643,0.645 0.507,0.494 1.053,0.965c-0.274,1.24 -20.929,4.657 -34.765,-2.222c7.502,9.514 35.521,9.139 38.873,5.289c0.124,0.3 0.539,0.912 0.917,1.386c-6.882,4.347 -21.685,2.542 -18.701,3.211c5.165,1.168 13.289,0.648 19.476,-2.384c0.375,0.373 0.964,0.746 0.964,0.746c0,-0 -5.117,7.153 -30.178,2.731c15.425,10.88 35.642,0.671 35.642,0.671c-0,0 -2.161,5.938 -7.574,9.438c1.515,0.474 3.677,0.124 3.677,0.124c0,0 -3.084,6.383 -7.477,7.251c1.414,1.293 3.476,1.591 3.476,1.591c-0,-0 1.067,1.691 -5.562,7.801c1.141,1.367 3.798,1.094 3.798,1.094c0,-0 -1.466,3.402 -5.589,4.745c9.34,2.361 13.433,-4.025 13.433,-4.025l-0.112,2.208c-0,0 -2.491,6.508 -4.503,11.056c-2.01,4.542 -3.478,4.421 -5.317,4.993c-1.837,0.57 -3.501,0.469 -4.741,1.838c3.526,-0.049 -6.607,-0.1 -3.85,4.222c-2.808,0.122 -0.696,4.269 -0.696,4.269c0,0 0.075,-2.953 3.032,-3.873c1.809,0.896 2.207,-2.487 3.403,-2.582c1.488,-0.818 3.427,-1.292 3.427,-1.292c-0,0 0.047,1.513 -3.031,4.594c2.012,2.509 -1.441,4.298 1.887,6.831c-0.546,-3.004 2.286,-5.486 3.031,-4.796c1.789,-2.755 2.185,-8.346 3.65,-7.571c1.094,5.511 3.875,4.866 6.037,7.399c1.861,-0.643 3.203,2.929 3.203,2.929c0,0 1.591,-3.447 -1.217,-4.742c-1.59,-0.645 -6.607,-6.087 -6.185,-6.855c0.72,-4.592 5.185,-13.236 6.786,-15.893c2.557,8.57 7.845,8.717 7.845,8.717c-0,-0 -4.423,-9.616 -3.083,-11.974c0.326,0.722 2.535,6.235 8.175,6.085c-1.219,-1.913 -0.769,-7.923 -0.769,-7.923c-0,0 1.813,1.068 3.228,0.348c-3.005,-5.142 0.596,-5.663 -2.21,-11.628c1.34,1.196 3.924,0.995 5.065,0.4c-2.657,-3.602 0.72,-9.835 -2.234,-14.358c0.718,1.22 1.588,2.261 2.757,3.18Z" style="stroke:#000;stroke-width:0.72px;"/><path d="M99.455,116.815c0.771,2.683 1.714,4.546 2.286,5.514m-11.999,21.945c-0.248,1.889 0.399,4.136 0.745,5.131m11.054,-108.247c-0.399,2.211 2.956,2.708 2.956,2.708m-9.613,-5.389c1.915,0 5.739,-1.018 5.961,1.514c-0,1.018 -1.142,1.615 -2.308,0.772c-1.169,-0.847 -0.698,-2.286 -3.653,-2.286Zm-5.365,4.271c0.87,-1.638 6.858,1.566 10.531,1.069" style="fill:none;stroke:#fff;stroke-width:0.72px;stroke-linecap:round;stroke-linejoin:round;"/><path d="M87.581,119.125c-2.187,0.821 -10.138,2.685 -13.294,-4.219" style="fill:none;stroke:#fff;stroke-width:0.72px;"/><path d="M84.01,137.988c-2.364,4.895 1.485,10.225 1.485,10.225c0,-0 6.384,-3.877 6.857,-10.235m-9.615,-16.071c1.988,-3.676 6.983,-1.468 10.311,-2.76m5.86,17.139c-0.886,-0.752 -2.981,-3.521 -3.351,-5.561m2.332,16.842c-2.358,-1.119 -6.332,-4.894 -5.49,-13.539m-19.325,15.177c6.626,-0.484 9.811,-4.815 10.436,-5.439m-8.671,-3.441c1.72,0.246 10.636,0.685 13.399,-8.832m-9.401,-0.023c2.461,-0.275 7.701,-2.234 9.862,-5.811m-0.15,0.67c1.07,-4.993 4.222,-8.644 7.702,-7.354c5.065,1.864 1.837,12.371 -6.98,17.066c-1.243,-3.205 -1.343,-6.707 -0.722,-9.712Zm-0.593,-8.595c-4.672,0.747 -21.315,-2.255 -21.899,-13.701m-1.362,-6.793c-3.303,2.011 4.246,12.924 11.55,14.314m-13.19,-25.298c-3.298,13.22 14.044,26.262 24.274,23.827m0.627,7.651c-7.105,-1.739 -11.675,-4.224 -12.05,-5.34c-0.57,-2.319 10.06,-1.681 11.423,-2.311c-4.659,0.206 -14.869,-4.795 -14.081,-7.178c0.363,-1.094 9.437,0.883 11.449,-0.027c-1.996,-0.617 -10.772,-3.359 -11.025,-6.53c-0.133,-1.697 6.218,-0.471 10.37,-1.985c-12.159,2.926 -21.538,-9.314 -18.839,-19.103c-10.764,18.745 17.136,26.973 19.494,27.618m-0.655,-8.515c-1.517,11.253 6.743,16.096 3.539,24.762c4.918,-0.745 4,-11.576 4,-11.576m-4.994,-14.227c0,14.356 4.994,14.227 4.994,14.227c0,0 4.172,-0.992 5.216,-10.702c0,-0 1.814,10.357 7.7,11.846c-0.968,4.248 -4.892,8.768 -8.246,10.282c-3.777,-2.954 -4.67,-11.426 -4.67,-11.426m-0.324,-24.338c0.006,0.487 0.571,10.369 -8.793,11.44c-0.296,-4.347 3.031,-10.475 3.031,-10.475c0.945,0.101 12.319,0.624 12.344,-13.038m-6.582,12.073c0.026,9.238 5.715,13.636 5.715,13.636c-0,-0 7.525,-4.051 7.525,-13.29c-0.571,-0.223 -6.658,0.298 -6.658,-12.419m-4.147,-9.041c0.969,-0.496 4.445,-2.635 5.986,-7.975c1.913,8.768 4.819,7.954 4.819,8.644c-0,7.06 -9.415,9.836 -13.538,10.333" style="fill:none;stroke:#fff;stroke-width:0.72px;stroke-linecap:round;stroke-linejoin:round;"/><path d="M83.509,143.765c-3.331,3.576 -3.005,9.765 -2.063,12.62c3.354,-1.912 7.825,-7.148 8.297,-12.07" style="fill:none;stroke:#fff;stroke-width:0.72px;"/><path d="M109.54,116.817c-0.772,2.68 -1.717,4.544 -2.289,5.512m11.999,21.945c0.249,1.889 -0.396,4.136 -0.743,5.13" style="fill:none;stroke:#fff;stroke-width:0.72px;stroke-linecap:round;stroke-linejoin:round;"/><path d="M121.411,119.125c2.186,0.821 10.138,2.685 13.292,-4.219" style="fill:none;stroke:#fff;stroke-width:0.72px;"/><path d="M124.983,137.988c2.364,4.895 -1.485,10.225 -1.485,10.225c-0,-0 -6.386,-3.877 -6.858,-10.235m9.615,-16.071c-1.985,-3.676 -6.985,-1.468 -10.312,-2.76m-5.859,17.139c0.888,-0.752 2.981,-3.521 3.352,-5.561m-2.333,16.842c2.359,-1.119 6.332,-4.894 5.489,-13.539m19.324,15.177c-6.624,-0.484 -9.811,-4.815 -10.433,-5.439m8.672,-3.441c-1.722,0.246 -10.637,0.685 -13.403,-8.832m9.401,-0.023c-2.459,-0.275 -7.699,-2.234 -9.862,-5.811m0.15,0.67c-1.066,-4.993 -4.222,-8.644 -7.701,-7.354c-5.064,1.864 -1.833,12.371 6.982,17.066c1.241,-3.205 1.342,-6.707 0.719,-9.712Zm0.597,-8.595c4.668,0.747 21.314,-2.255 21.896,-13.701m1.363,-6.793c3.304,2.011 -4.247,12.924 -11.55,14.314m13.186,-25.298c3.303,13.22 -14.04,26.262 -24.269,23.827m-0.626,7.651c7.104,-1.739 11.675,-4.224 12.046,-5.34c0.574,-2.319 -10.057,-1.681 -11.42,-2.311c4.657,0.206 14.869,-4.795 14.079,-7.178c-0.36,-1.094 -9.435,0.883 -11.447,-0.027c1.995,-0.617 10.772,-3.359 11.024,-6.53c0.134,-1.697 -6.217,-0.471 -10.37,-1.985c12.156,2.926 21.538,-9.314 18.84,-19.103c10.766,18.745 -17.135,26.973 -19.494,27.618m0.654,-8.515c1.517,11.253 -6.741,16.096 -3.539,24.762c-4.917,-0.745 -3.998,-11.576 -3.998,-11.576m4.992,-14.227c-0,14.356 -4.992,14.227 -4.992,14.227c0,0 -4.173,-0.992 -5.218,-10.702c-0,-0 -1.813,10.357 -7.698,11.846c0.968,4.248 4.89,8.768 8.243,10.282c3.776,-2.954 4.673,-11.426 4.673,-11.426m0.32,-24.338c-0.003,0.487 -0.567,10.369 8.794,11.44c0.298,-4.347 -3.029,-10.475 -3.029,-10.475c-0.945,0.101 -12.322,0.624 -12.345,-13.038m6.58,12.073c-0.021,9.238 -5.711,13.636 -5.711,13.636c-0,-0 -7.525,-4.051 -7.525,-13.29c0.569,-0.223 6.656,0.298 6.656,-12.419m4.147,-9.041c-0.969,-0.496 -4.444,-2.635 -5.984,-7.975c-1.915,8.768 -4.819,7.954 -4.819,8.644c-0,7.06 9.413,9.836 13.536,10.333" style="fill:none;stroke:#fff;stroke-width:0.72px;stroke-linecap:round;stroke-linejoin:round;"/><path d="M125.483,143.765c3.332,3.576 3.006,9.765 2.061,12.62c-3.35,-1.912 -7.822,-7.148 -8.294,-12.07" style="fill:none;stroke:#fff;stroke-width:0.72px;"/></svg>